<?xml version="1.0" encoding="UTF-8"?> <svg xmlns="http://www.w3.org/2000/svg" width="191" height="40" viewBox="0 0 191 40" fill="none"><g clip-path="url(#clip0_47_5574)"><path d="M59.8378 0H49.7474V26.0645H53.9462V17.0323H59.8816C65.8481 17.0323 68.8674 12.9032 68.8674 8.56258C68.8597 4.34581 65.8403 0 59.8378 0ZM59.8378 13.1613H53.9462V4.27355H59.8378C63.0042 4.27355 64.6249 6.48516 64.6249 8.66065C64.6249 10.8361 63.0429 13.1484 59.8378 13.1484V13.1613Z" fill="#0A46AC"></path><path d="M75.8197 19.8864V0H71.7681V19.8864C71.7681 23.9381 74.421 26.4413 79.1332 26.4413V22.6477C76.8519 22.6477 75.8197 21.4323 75.8197 19.8864Z" fill="#0A46AC"></path><path d="M92.3177 22.2787C91.4625 22.7145 90.5163 22.9418 89.5565 22.9419C87.5307 22.9419 85.541 22.0232 85.4274 19.8864V6.99609H81.381V19.8116C81.381 24.5625 84.8416 26.4051 89.0042 26.4413C91.527 26.4016 94.017 25.8631 96.3307 24.8567V6.99609H92.3177V22.2787Z" fill="#0A46AC"></path><path d="M104.426 19.5923L104.463 10.6788H108.075V6.99618H104.426L104.057 2.50586H100.419V19.6284C100.419 24.4517 103.402 26.4413 107.159 26.4413C107.665 26.4402 108.169 26.4031 108.669 26.3304V22.7949C106.46 22.7949 104.426 22.6117 104.426 19.5923Z" fill="#0A46AC"></path><path d="M118.537 6.62964C114.779 6.66577 110.988 8.83867 110.988 13.2206V19.8503C110.988 24.3045 114.779 26.4051 118.537 26.4413C122.219 26.4051 126.021 24.3045 126.021 19.8503V13.2206C126.013 8.83867 122.232 6.66577 118.537 6.62964ZM121.974 19.6645C121.974 21.4709 120.134 22.5032 118.55 22.5032C116.857 22.5032 115.05 21.4709 115.05 19.6645V13.2129C115.05 11.4064 116.857 10.5625 118.55 10.5625C120.134 10.5625 121.974 11.409 121.974 13.2129V19.6645Z" fill="#0A46AC"></path><path d="M146.965 6.62979C144.867 6.66592 142.836 7.51237 141.737 9.16915C140.596 7.25431 138.459 6.62979 136.175 6.62979C133.891 6.62979 131.352 7.47624 129.695 8.66076V26.0775H133.672V11.342C134.502 10.8317 135.459 10.5635 136.433 10.5679C138.165 10.5679 139.788 11.2672 139.788 12.9962V26.0698H143.765V12.9266C143.765 11.453 145.386 10.5704 146.968 10.5704C148.55 10.5704 150.026 11.3446 150.026 13.0737V26.0724H154.039V12.9266C154.036 8.69173 150.428 6.59624 146.965 6.62979Z" fill="#0A46AC"></path><path d="M165.196 6.62964C161.438 6.62964 157.645 8.7277 157.645 13.1845V19.8942C157.645 24.2812 161.438 26.449 165.196 26.449C167.699 26.449 170.571 25.1587 172.045 22.5445L168.656 20.5935C167.957 22.0309 166.522 22.5083 165.121 22.5083C163.392 22.5083 161.732 21.4761 161.732 19.7471V18.4129H172.633V13.1845C172.633 8.7277 168.842 6.62964 165.196 6.62964ZM168.731 15.0632H161.732V13.3316C161.66 11.4529 163.428 10.5703 165.232 10.5703C167.036 10.5703 168.731 11.4993 168.731 13.2567V15.0632Z" fill="#0A46AC"></path><path d="M182.575 6.62958C180.314 6.65752 178.088 7.18634 176.056 8.17797V26.0747H180.108V11.0838C180.94 10.6206 181.882 10.3923 182.833 10.4231C184.784 10.4231 186.849 11.3057 186.962 13.4425V26.0722H190.978V13.4038C190.972 8.50829 186.921 6.59604 182.575 6.62958Z" fill="#0A46AC"></path><path d="M35.9278 3.87104V25.2052L30.7045 30.5291V24.7123L29.5716 23.5794L27.3548 21.3626L26.2194 20.2272H19.5639V13.5639L18.431 12.4285L16.3819 10.382L15.2284 9.22587L13.5948 9.24652L9.47871 9.30329L14.9265 3.86071H35.9278V3.87104ZM39.7987 -0.0102539H13.329L0 13.3059L13.6465 13.1226L15.6929 15.1717V24.093H24.6168L26.8336 26.3123V39.9897L39.7987 26.7768V6.89095e-05V-0.0102539Z" fill="#0A46AC"></path></g><defs><clipPath id="clip0_47_5574"><rect width="190.973" height="40" fill="white"></rect></clipPath></defs></svg> 